# Blender 4.1.1
# www.blender.org
mtllib cornel.mtl
o Plane
v 1.000000 0.000000 1.000000
v 1.000000 0.000000 -1.000000
v -1.000000 0.000000 1.000000
v -1.000000 0.000000 -1.000000
vn -0.0000 1.0000 -0.0000
vt 1.000000 0.000000
vt 0.000000 1.000000
vt 0.000000 0.000000
vt 1.000000 1.000000
s 0
usemtl Material.005
f 2/1/1 3/2/1 1/3/1
f 2/1/1 4/4/1 3/2/1
o Plane.001
v -1.000000 0.000000 1.000000
v -1.000000 0.000000 -1.000000
v -1.000000 2.000000 1.000000
v -1.000000 2.000000 -1.000000
vn 1.0000 -0.0000 -0.0000
vt 1.000000 0.000000
vt 0.000000 1.000000
vt 0.000000 0.000000
vt 1.000000 1.000000
s 0
usemtl Material.001
f 6/5/2 7/6/2 5/7/2
f 6/5/2 8/8/2 7/6/2
o Plane.002
v 1.000000 0.000000 1.000000
v 1.000000 0.000000 -1.000000
v 1.000000 2.000000 1.000000
v 1.000000 2.000000 -1.000000
vn -1.0000 -0.0000 -0.0000
vt 1.000000 0.000000
vt 0.000000 0.000000
vt 0.000000 1.000000
vt 1.000000 1.000000
s 0
usemtl Material.002
f 10/9/3 9/10/3 11/11/3
f 10/9/3 11/11/3 12/12/3
o Plane.003
v 1.000000 2.000000 1.000000
v 1.000000 2.000000 -1.000000
v -1.000000 2.000000 1.000000
v -1.000000 2.000000 -1.000000
vn -0.0000 -1.0000 -0.0000
vt 1.000000 0.000000
vt 0.000000 0.000000
vt 0.000000 1.000000
vt 1.000000 1.000000
s 0
usemtl Material.007
f 14/13/4 13/14/4 15/15/4
f 14/13/4 15/15/4 16/16/4
o Plane.005
v 1.000000 2.000000 1.000000
v 1.000000 0.000000 1.000000
v -1.000000 2.000000 1.000000
v -1.000000 0.000000 1.000000
vn -0.0000 -0.0000 -1.0000
vt 1.000000 0.000000
vt 0.000000 1.000000
vt 0.000000 0.000000
vt 1.000000 1.000000
s 0
usemtl Material.006
f 18/17/5 19/18/5 17/19/5
f 18/17/5 20/20/5 19/18/5
o Sphere
v -0.081698 0.887746 -0.059357
v -0.155399 0.841329 -0.112904
v -0.213889 0.769032 -0.155399
v -0.251441 0.677932 -0.182683
v -0.264381 0.576948 -0.192084
v -0.251441 0.475963 -0.182683
v -0.213889 0.384863 -0.155399
v -0.155399 0.312566 -0.112904
v -0.081698 0.266149 -0.059357
v -0.031206 0.887746 -0.096042
v -0.059357 0.841329 -0.182683
v -0.081698 0.769032 -0.251441
v -0.096042 0.677932 -0.295587
v -0.100985 0.576948 -0.310799
v -0.096042 0.475963 -0.295587
v -0.081698 0.384863 -0.251441
v -0.059357 0.312566 -0.182683
v -0.031206 0.266149 -0.096042
v 0.031206 0.887746 -0.096042
v 0.059357 0.841329 -0.182683
v 0.081698 0.769032 -0.251441
v 0.096042 0.677932 -0.295587
v 0.100985 0.576948 -0.310799
v 0.096042 0.475963 -0.295587
v 0.081698 0.384863 -0.251441
v 0.059357 0.312566 -0.182683
v 0.031206 0.266149 -0.096042
v 0.081698 0.887746 -0.059357
v 0.155399 0.841329 -0.112904
v 0.213889 0.769032 -0.155399
v 0.251441 0.677932 -0.182683
v 0.264381 0.576948 -0.192084
v 0.251441 0.475963 -0.182683
v 0.213889 0.384863 -0.155399
v 0.155399 0.312566 -0.112904
v 0.081698 0.266149 -0.059357
v 0.100985 0.887746 -0.000000
v 0.192084 0.841329 -0.000000
v 0.264381 0.769032 -0.000000
v 0.310799 0.677932 -0.000000
v 0.326793 0.576948 -0.000000
v 0.310799 0.475963 -0.000000
v 0.264381 0.384863 -0.000000
v 0.192084 0.312566 -0.000000
v 0.100985 0.266149 -0.000000
v 0.000000 0.903741 0.000000
v 0.081698 0.887746 0.059357
v 0.155399 0.841329 0.112904
v 0.213889 0.769032 0.155399
v 0.251442 0.677932 0.182683
v 0.264381 0.576948 0.192084
v 0.251442 0.475963 0.182683
v 0.213889 0.384863 0.155399
v 0.155399 0.312566 0.112904
v 0.081698 0.266149 0.059357
v 0.031206 0.887746 0.096042
v 0.059357 0.841329 0.182683
v 0.081698 0.769032 0.251441
v 0.096042 0.677932 0.295587
v 0.100985 0.576948 0.310799
v 0.096042 0.475963 0.295587
v 0.081698 0.384863 0.251441
v 0.059357 0.312566 0.182683
v 0.031206 0.266149 0.096042
v 0.000000 0.250154 0.000000
v -0.031206 0.887746 0.096042
v -0.059357 0.841329 0.182683
v -0.081698 0.769032 0.251441
v -0.096042 0.677932 0.295587
v -0.100985 0.576948 0.310799
v -0.096042 0.475963 0.295587
v -0.081698 0.384863 0.251441
v -0.059357 0.312566 0.182683
v -0.031206 0.266149 0.096042
v -0.081698 0.887746 0.059357
v -0.155399 0.841329 0.112904
v -0.213889 0.769032 0.155399
v -0.251441 0.677932 0.182683
v -0.264381 0.576948 0.192084
v -0.251441 0.475963 0.182683
v -0.213889 0.384863 0.155399
v -0.155399 0.312566 0.112904
v -0.081698 0.266149 0.059357
v -0.100985 0.887746 0.000000
v -0.192084 0.841329 0.000000
v -0.264381 0.769032 0.000000
v -0.310799 0.677932 0.000000
v -0.326793 0.576948 0.000000
v -0.310799 0.475963 0.000000
v -0.264381 0.384863 0.000000
v -0.192084 0.312566 0.000000
v -0.100985 0.266149 0.000000
vn -0.2724 0.9416 -0.1979
vn -0.4914 0.7944 -0.3570
vn -0.6627 0.5735 -0.4815
vn -0.7717 0.3003 -0.5607
vn -0.8090 -0.0000 -0.5878
vn -0.7717 -0.3003 -0.5607
vn -0.6627 -0.5735 -0.4815
vn -0.4914 -0.7944 -0.3570
vn -0.2724 -0.9416 -0.1979
vn -0.1041 0.9416 -0.3202
vn -0.1877 0.7944 -0.5777
vn -0.2531 0.5735 -0.7791
vn -0.2948 0.3003 -0.9072
vn -0.3090 -0.0000 -0.9511
vn -0.2948 -0.3003 -0.9072
vn -0.2531 -0.5735 -0.7791
vn -0.1877 -0.7944 -0.5777
vn -0.1041 -0.9416 -0.3202
vn 0.1041 0.9416 -0.3202
vn 0.1877 0.7944 -0.5777
vn 0.2531 0.5735 -0.7791
vn 0.2948 0.3003 -0.9072
vn 0.3090 -0.0000 -0.9511
vn 0.2948 -0.3003 -0.9072
vn 0.2531 -0.5735 -0.7791
vn 0.1877 -0.7944 -0.5777
vn 0.1041 -0.9416 -0.3202
vn 0.2724 0.9416 -0.1979
vn 0.4914 0.7944 -0.3570
vn 0.6627 0.5735 -0.4815
vn 0.7717 0.3003 -0.5607
vn 0.8090 -0.0000 -0.5878
vn 0.7717 -0.3003 -0.5607
vn 0.6627 -0.5735 -0.4815
vn 0.4914 -0.7944 -0.3570
vn 0.2724 -0.9416 -0.1979
vn 0.3367 0.9416 -0.0000
vn 0.6074 0.7944 -0.0000
vn 0.8192 0.5735 -0.0000
vn 0.9538 0.3003 -0.0000
vn 1.0000 -0.0000 -0.0000
vn 0.9538 -0.3003 -0.0000
vn 0.8192 -0.5735 -0.0000
vn 0.6074 -0.7944 -0.0000
vn 0.3367 -0.9416 -0.0000
vn -0.0000 1.0000 -0.0000
vn 0.2724 0.9416 0.1979
vn 0.4914 0.7944 0.3570
vn 0.6627 0.5735 0.4815
vn 0.7717 0.3003 0.5607
vn 0.8090 -0.0000 0.5878
vn 0.7717 -0.3003 0.5607
vn 0.6627 -0.5735 0.4815
vn 0.4914 -0.7944 0.3570
vn 0.2724 -0.9416 0.1979
vn 0.1041 0.9416 0.3202
vn 0.1877 0.7944 0.5777
vn 0.2531 0.5735 0.7791
vn 0.2948 0.3003 0.9072
vn 0.3090 -0.0000 0.9511
vn 0.2948 -0.3003 0.9072
vn 0.2531 -0.5735 0.7791
vn 0.1877 -0.7944 0.5777
vn 0.1041 -0.9416 0.3202
vn -0.0000 -1.0000 -0.0000
vn -0.1041 0.9416 0.3202
vn -0.1877 0.7944 0.5777
vn -0.2531 0.5735 0.7791
vn -0.2948 0.3003 0.9072
vn -0.3090 -0.0000 0.9511
vn -0.2948 -0.3003 0.9072
vn -0.2531 -0.5735 0.7791
vn -0.1877 -0.7944 0.5777
vn -0.1041 -0.9416 0.3202
vn -0.2724 0.9416 0.1979
vn -0.4914 0.7944 0.3570
vn -0.6627 0.5735 0.4815
vn -0.7717 0.3003 0.5607
vn -0.8090 -0.0000 0.5878
vn -0.7717 -0.3003 0.5607
vn -0.6627 -0.5735 0.4815
vn -0.4914 -0.7944 0.3570
vn -0.2724 -0.9416 0.1979
vn -0.3367 0.9416 -0.0000
vn -0.6074 0.7944 -0.0000
vn -0.8192 0.5735 -0.0000
vn -0.9538 0.3003 -0.0000
vn -1.0000 -0.0000 -0.0000
vn -0.9538 -0.3003 -0.0000
vn -0.8192 -0.5735 -0.0000
vn -0.6074 -0.7944 -0.0000
vn -0.3367 -0.9416 -0.0000
vt 0.700000 0.900000
vt 0.600000 0.800000
vt 0.700000 0.800000
vt 0.700000 0.100000
vt 0.600000 0.200000
vt 0.600000 0.100000
vt 0.700000 0.500000
vt 0.600000 0.400000
vt 0.700000 0.400000
vt 0.700000 0.700000
vt 0.600000 0.700000
vt 0.650000 0.000000
vt 0.600000 0.300000
vt 0.700000 0.300000
vt 0.700000 0.600000
vt 0.600000 0.600000
vt 0.650000 1.000000
vt 0.600000 0.900000
vt 0.700000 0.200000
vt 0.600000 0.500000
vt 0.500000 0.100000
vt 0.500000 0.400000
vt 0.500000 0.800000
vt 0.500000 0.700000
vt 0.550000 0.000000
vt 0.500000 0.300000
vt 0.500000 0.600000
vt 0.550000 1.000000
vt 0.500000 0.900000
vt 0.500000 0.200000
vt 0.500000 0.500000
vt 0.400000 0.500000
vt 0.400000 0.800000
vt 0.400000 0.200000
vt 0.400000 0.100000
vt 0.400000 0.400000
vt 0.400000 0.700000
vt 0.450000 0.000000
vt 0.400000 0.300000
vt 0.400000 0.600000
vt 0.450000 1.000000
vt 0.400000 0.900000
vt 0.350000 1.000000
vt 0.300000 0.900000
vt 0.300000 0.200000
vt 0.300000 0.600000
vt 0.300000 0.500000
vt 0.300000 0.800000
vt 0.300000 0.100000
vt 0.300000 0.400000
vt 0.300000 0.700000
vt 0.350000 0.000000
vt 0.300000 0.300000
vt 0.200000 0.700000
vt 0.200000 0.600000
vt 0.250000 1.000000
vt 0.200000 0.900000
vt 0.200000 0.200000
vt 0.200000 0.500000
vt 0.200000 0.800000
vt 0.200000 0.100000
vt 0.200000 0.400000
vt 0.250000 0.000000
vt 0.200000 0.300000
vt 0.150000 0.000000
vt 0.100000 0.100000
vt 0.100000 0.300000
vt 0.100000 0.700000
vt 0.100000 0.600000
vt 0.150000 1.000000
vt 0.100000 0.900000
vt 0.100000 0.200000
vt 0.100000 0.500000
vt 0.100000 0.800000
vt 0.100000 0.400000
vt 0.000000 0.500000
vt 0.000000 0.400000
vt 0.000000 0.700000
vt 0.050000 0.000000
vt 0.000000 0.100000
vt 0.000000 0.300000
vt 0.000000 0.600000
vt 0.050000 1.000000
vt 0.000000 0.900000
vt 0.000000 0.200000
vt 0.000000 0.800000
vt 1.000000 0.900000
vt 0.900000 0.800000
vt 1.000000 0.800000
vt 1.000000 0.100000
vt 0.900000 0.200000
vt 0.900000 0.100000
vt 1.000000 0.500000
vt 0.900000 0.400000
vt 1.000000 0.400000
vt 1.000000 0.700000
vt 0.900000 0.700000
vt 0.950000 0.000000
vt 1.000000 0.300000
vt 0.900000 0.300000
vt 0.900000 0.600000
vt 1.000000 0.600000
vt 0.950000 1.000000
vt 0.900000 0.900000
vt 1.000000 0.200000
vt 0.900000 0.500000
vt 0.800000 0.600000
vt 0.800000 0.500000
vt 0.800000 0.800000
vt 0.800000 0.200000
vt 0.800000 0.100000
vt 0.800000 0.400000
vt 0.800000 0.700000
vt 0.850000 0.000000
vt 0.800000 0.300000
vt 0.850000 1.000000
vt 0.800000 0.900000
vt 0.750000 1.000000
vt 0.750000 0.000000
s 1
usemtl Material.004
f 104/21/89 22/22/7 105/23/90
f 112/24/97 28/25/13 29/26/14
f 108/27/93 26/28/11 109/29/94
f 106/30/91 22/22/7 23/31/8
f 85/32/70 112/24/97 29/26/14
f 109/29/94 27/33/12 110/34/95
f 107/35/92 23/31/8 24/36/9
f 104/21/89 66/37/51 21/38/6
f 110/34/95 28/25/13 111/39/96
f 107/35/92 25/40/10 108/27/93
f 28/25/13 38/41/23 29/26/14
f 25/40/10 35/42/20 26/28/11
f 23/31/8 31/43/16 32/44/17
f 85/45/70 29/26/14 38/41/23
f 26/28/11 36/46/21 27/33/12
f 24/36/9 32/44/17 33/47/18
f 21/38/6 66/48/51 30/49/15
f 27/33/12 37/50/22 28/25/13
f 25/40/10 33/47/18 34/51/19
f 22/22/7 30/49/15 31/43/16
f 33/47/18 43/52/28 34/51/19
f 30/49/15 40/53/25 31/43/16
f 38/41/23 46/54/31 47/55/32
f 34/51/19 44/56/29 35/42/20
f 31/43/16 41/57/26 32/44/17
f 85/58/70 38/41/23 47/55/32
f 35/42/20 45/59/30 36/46/21
f 32/44/17 42/60/27 33/47/18
f 30/49/15 66/61/51 39/62/24
f 36/46/21 46/54/31 37/50/22
f 39/62/24 66/63/51 48/64/33
f 45/59/30 55/65/40 46/54/31
f 43/52/28 51/66/36 52/67/37
f 39/62/24 49/68/34 40/53/25
f 46/54/31 56/69/41 47/55/32
f 43/52/28 53/70/38 44/56/29
f 40/53/25 50/71/35 41/57/26
f 85/72/70 47/55/32 56/69/41
f 44/56/29 54/73/39 45/59/30
f 41/57/26 51/66/36 42/60/27
f 51/66/36 59/74/44 60/75/45
f 48/64/33 66/76/51 57/77/42
f 54/73/39 64/78/49 55/65/40
f 52/67/37 60/75/45 61/79/46
f 48/64/33 58/80/43 49/68/34
f 56/69/41 64/78/49 65/81/50
f 52/67/37 62/82/47 53/70/38
f 49/68/34 59/74/44 50/71/35
f 85/83/70 56/69/41 65/81/50
f 53/70/38 63/84/48 54/73/39
f 85/85/70 65/81/50 75/86/60
f 62/82/47 73/87/58 63/84/48
f 60/75/45 69/88/54 70/89/55
f 57/77/42 66/90/51 67/91/52
f 63/84/48 74/92/59 64/78/49
f 60/75/45 71/93/56 61/79/46
f 57/77/42 68/94/53 58/80/43
f 65/81/50 74/92/59 75/86/60
f 61/79/46 72/95/57 62/82/47
f 59/74/44 68/94/53 69/88/54
f 72/95/57 80/96/65 81/97/66
f 68/94/53 78/98/63 69/88/54
f 85/99/70 75/86/60 84/100/69
f 72/95/57 82/101/67 73/87/58
f 69/88/54 79/102/64 70/89/55
f 67/91/52 66/103/51 76/104/61
f 73/87/58 83/105/68 74/92/59
f 70/89/55 80/96/65 71/93/56
f 67/91/52 77/106/62 68/94/53
f 75/86/60 83/105/68 84/100/69
f 76/107/61 87/108/72 77/109/62
f 84/110/69 93/111/78 94/112/79
f 80/113/65 91/114/76 81/115/66
f 78/116/63 87/108/72 88/117/73
f 85/118/70 84/110/69 94/112/79
f 82/119/67 91/114/76 92/120/77
f 78/116/63 89/121/74 79/122/64
f 76/107/61 66/123/51 86/124/71
f 82/119/67 93/111/78 83/125/68
f 80/113/65 89/121/74 90/126/75
f 90/126/75 98/127/83 99/128/84
f 86/124/71 96/129/81 87/108/72
f 94/112/79 102/130/87 103/131/88
f 90/126/75 100/132/85 91/114/76
f 88/117/73 96/129/81 97/133/82
f 85/134/70 94/112/79 103/131/88
f 91/114/76 101/135/86 92/120/77
f 88/117/73 98/127/83 89/121/74
f 86/124/71 66/136/51 95/137/80
f 92/120/77 102/130/87 93/111/78
f 95/137/80 66/138/51 104/21/89
f 101/135/86 111/39/96 102/130/87
f 99/128/84 107/35/92 108/27/93
f 95/137/80 105/23/90 96/129/81
f 103/131/88 111/39/96 112/24/97
f 99/128/84 109/29/94 100/132/85
f 97/133/82 105/23/90 106/30/91
f 85/139/70 103/131/88 112/24/97
f 100/132/85 110/34/95 101/135/86
f 98/127/83 106/30/91 107/35/92
f 104/21/89 21/38/6 22/22/7
f 112/24/97 111/39/96 28/25/13
f 108/27/93 25/40/10 26/28/11
f 106/30/91 105/23/90 22/22/7
f 109/29/94 26/28/11 27/33/12
f 107/35/92 106/30/91 23/31/8
f 110/34/95 27/33/12 28/25/13
f 107/35/92 24/36/9 25/40/10
f 28/25/13 37/50/22 38/41/23
f 25/40/10 34/51/19 35/42/20
f 23/31/8 22/22/7 31/43/16
f 26/28/11 35/42/20 36/46/21
f 24/36/9 23/31/8 32/44/17
f 27/33/12 36/46/21 37/50/22
f 25/40/10 24/36/9 33/47/18
f 22/22/7 21/38/6 30/49/15
f 33/47/18 42/60/27 43/52/28
f 30/49/15 39/62/24 40/53/25
f 38/41/23 37/50/22 46/54/31
f 34/51/19 43/52/28 44/56/29
f 31/43/16 40/53/25 41/57/26
f 35/42/20 44/56/29 45/59/30
f 32/44/17 41/57/26 42/60/27
f 36/46/21 45/59/30 46/54/31
f 45/59/30 54/73/39 55/65/40
f 43/52/28 42/60/27 51/66/36
f 39/62/24 48/64/33 49/68/34
f 46/54/31 55/65/40 56/69/41
f 43/52/28 52/67/37 53/70/38
f 40/53/25 49/68/34 50/71/35
f 44/56/29 53/70/38 54/73/39
f 41/57/26 50/71/35 51/66/36
f 51/66/36 50/71/35 59/74/44
f 54/73/39 63/84/48 64/78/49
f 52/67/37 51/66/36 60/75/45
f 48/64/33 57/77/42 58/80/43
f 56/69/41 55/65/40 64/78/49
f 52/67/37 61/79/46 62/82/47
f 49/68/34 58/80/43 59/74/44
f 53/70/38 62/82/47 63/84/48
f 62/82/47 72/95/57 73/87/58
f 60/75/45 59/74/44 69/88/54
f 63/84/48 73/87/58 74/92/59
f 60/75/45 70/89/55 71/93/56
f 57/77/42 67/91/52 68/94/53
f 65/81/50 64/78/49 74/92/59
f 61/79/46 71/93/56 72/95/57
f 59/74/44 58/80/43 68/94/53
f 72/95/57 71/93/56 80/96/65
f 68/94/53 77/106/62 78/98/63
f 72/95/57 81/97/66 82/101/67
f 69/88/54 78/98/63 79/102/64
f 73/87/58 82/101/67 83/105/68
f 70/89/55 79/102/64 80/96/65
f 67/91/52 76/104/61 77/106/62
f 75/86/60 74/92/59 83/105/68
f 76/107/61 86/124/71 87/108/72
f 84/110/69 83/125/68 93/111/78
f 80/113/65 90/126/75 91/114/76
f 78/116/63 77/109/62 87/108/72
f 82/119/67 81/115/66 91/114/76
f 78/116/63 88/117/73 89/121/74
f 82/119/67 92/120/77 93/111/78
f 80/113/65 79/122/64 89/121/74
f 90/126/75 89/121/74 98/127/83
f 86/124/71 95/137/80 96/129/81
f 94/112/79 93/111/78 102/130/87
f 90/126/75 99/128/84 100/132/85
f 88/117/73 87/108/72 96/129/81
f 91/114/76 100/132/85 101/135/86
f 88/117/73 97/133/82 98/127/83
f 92/120/77 101/135/86 102/130/87
f 101/135/86 110/34/95 111/39/96
f 99/128/84 98/127/83 107/35/92
f 95/137/80 104/21/89 105/23/90
f 103/131/88 102/130/87 111/39/96
f 99/128/84 108/27/93 109/29/94
f 97/133/82 96/129/81 105/23/90
f 100/132/85 109/29/94 110/34/95
f 98/127/83 97/133/82 106/30/91
o Cube
v 0.268366 1.957466 0.268366
v 0.268366 2.042534 0.268366
v -0.268366 1.957466 0.268366
v -0.268366 2.042534 0.268366
v 0.268366 1.957466 -0.268366
v 0.268366 2.042534 -0.268366
v -0.268366 1.957466 -0.268366
v -0.268366 2.042534 -0.268366
vn -0.0000 -0.0000 1.0000
vn -1.0000 -0.0000 -0.0000
vn -0.0000 -0.0000 -1.0000
vn 1.0000 -0.0000 -0.0000
vn -0.0000 -1.0000 -0.0000
vn -0.0000 1.0000 -0.0000
vt 0.625000 0.000000
vt 0.375000 0.250000
vt 0.375000 0.000000
vt 0.625000 0.250000
vt 0.375000 0.500000
vt 0.625000 0.500000
vt 0.375000 0.750000
vt 0.625000 0.750000
vt 0.375000 1.000000
vt 0.125000 0.750000
vt 0.125000 0.500000
vt 0.875000 0.500000
vt 0.625000 1.000000
vt 0.875000 0.750000
s 0
usemtl Material.003
f 114/140/98 115/141/98 113/142/98
f 116/143/99 119/144/99 115/141/99
f 120/145/100 117/146/100 119/144/100
f 118/147/101 113/148/101 117/146/101
f 119/144/102 113/149/102 115/150/102
f 116/151/103 118/147/103 120/145/103
f 114/140/98 116/143/98 115/141/98
f 116/143/99 120/145/99 119/144/99
f 120/145/100 118/147/100 117/146/100
f 118/147/101 114/152/101 113/148/101
f 119/144/102 117/146/102 113/149/102
f 116/151/103 114/153/103 118/147/103
